<mxfile host="app.diagrams.net" agent="Mozilla/5.0 (Windows NT 10.0; Win64; x64) AppleWebKit/537.36 (KHTML, like Gecko) Chrome/136.0.0.0 Safari/537.36" version="27.0.1">
  <diagram name="Page-1" id="_rh4KQf7vbzHDeHkcW-L">
    <mxGraphModel dx="872" dy="431" grid="1" gridSize="10" guides="1" tooltips="1" connect="1" arrows="1" fold="1" page="1" pageScale="1" pageWidth="850" pageHeight="1100" math="0" shadow="0">
      <root>
        <mxCell id="0" />
        <mxCell id="1" parent="0" />
        <mxCell id="xMqbDuuQiimfAITWV7Wq-1" value="Actor" style="shape=umlActor;verticalLabelPosition=bottom;verticalAlign=top;html=1;outlineConnect=0;fillColor=#647687;fontColor=#ffffff;strokeColor=#314354;" parent="1" vertex="1">
          <mxGeometry x="40" y="50" width="280" height="510" as="geometry" />
        </mxCell>
        <mxCell id="xMqbDuuQiimfAITWV7Wq-2" value="" style="rounded=1;whiteSpace=wrap;html=1;rotation=90;fillColor=#76608a;fontColor=#ffffff;strokeColor=#432D57;" parent="1" vertex="1">
          <mxGeometry x="422.67" y="138.59" width="478.43" height="271.25" as="geometry" />
        </mxCell>
        <mxCell id="xMqbDuuQiimfAITWV7Wq-3" value="Add sticky note" style="ellipse;whiteSpace=wrap;html=1;fillColor=#6a00ff;fontColor=#ffffff;strokeColor=#3700CC;" parent="1" vertex="1">
          <mxGeometry x="601.88" y="60" width="120" height="80" as="geometry" />
        </mxCell>
        <mxCell id="xMqbDuuQiimfAITWV7Wq-5" value="Update sticky note" style="ellipse;whiteSpace=wrap;html=1;fillColor=#6a00ff;fontColor=#ffffff;strokeColor=#3700CC;" parent="1" vertex="1">
          <mxGeometry x="601.88" y="281.88" width="120" height="80" as="geometry" />
        </mxCell>
        <mxCell id="xMqbDuuQiimfAITWV7Wq-7" value="Delete sticky note" style="ellipse;whiteSpace=wrap;html=1;fillColor=#6a00ff;fontColor=#ffffff;strokeColor=#3700CC;" parent="1" vertex="1">
          <mxGeometry x="601.88" y="420" width="120" height="80" as="geometry" />
        </mxCell>
        <mxCell id="xMqbDuuQiimfAITWV7Wq-8" value="Read sticky note" style="ellipse;whiteSpace=wrap;html=1;fillColor=#6a00ff;fontColor=#ffffff;strokeColor=#3700CC;" parent="1" vertex="1">
          <mxGeometry x="601.88" y="160" width="120" height="80" as="geometry" />
        </mxCell>
        <mxCell id="zRNpniw_U4RaHHKquwYz-1" value="" style="endArrow=none;html=1;rounded=0;" edge="1" parent="1" source="xMqbDuuQiimfAITWV7Wq-1" target="xMqbDuuQiimfAITWV7Wq-3">
          <mxGeometry width="50" height="50" relative="1" as="geometry">
            <mxPoint x="400" y="260" as="sourcePoint" />
            <mxPoint x="450" y="210" as="targetPoint" />
          </mxGeometry>
        </mxCell>
        <mxCell id="zRNpniw_U4RaHHKquwYz-2" value="" style="endArrow=none;html=1;rounded=0;" edge="1" parent="1" source="xMqbDuuQiimfAITWV7Wq-1" target="xMqbDuuQiimfAITWV7Wq-8">
          <mxGeometry width="50" height="50" relative="1" as="geometry">
            <mxPoint x="400" y="260" as="sourcePoint" />
            <mxPoint x="450" y="210" as="targetPoint" />
          </mxGeometry>
        </mxCell>
        <mxCell id="zRNpniw_U4RaHHKquwYz-3" value="" style="endArrow=none;html=1;rounded=0;" edge="1" parent="1" source="xMqbDuuQiimfAITWV7Wq-1" target="xMqbDuuQiimfAITWV7Wq-5">
          <mxGeometry width="50" height="50" relative="1" as="geometry">
            <mxPoint x="400" y="360" as="sourcePoint" />
            <mxPoint x="450" y="310" as="targetPoint" />
          </mxGeometry>
        </mxCell>
        <mxCell id="zRNpniw_U4RaHHKquwYz-4" value="" style="endArrow=none;html=1;rounded=0;" edge="1" parent="1" source="xMqbDuuQiimfAITWV7Wq-1" target="xMqbDuuQiimfAITWV7Wq-7">
          <mxGeometry width="50" height="50" relative="1" as="geometry">
            <mxPoint x="400" y="360" as="sourcePoint" />
            <mxPoint x="450" y="310" as="targetPoint" />
          </mxGeometry>
        </mxCell>
      </root>
    </mxGraphModel>
  </diagram>
</mxfile>
